<svg width="16" height="19" viewBox="0 0 16 19" fill="none" xmlns="http://www.w3.org/2000/svg">
<path fill-rule="evenodd" clip-rule="evenodd" d="M11.0945 0.21762C11.1076 0.198927 11.1334 0.194384 11.1521 0.207473L12.4302 1.10241C12.4489 1.1155 12.4534 1.14126 12.4403 1.15995L10.6614 3.70046C11.5263 3.97675 12.1154 4.27478 12.1154 4.27478C12.1154 4.27478 10.6753 6.75199 8.23263 6.75199C5.78997 6.75199 4.05424 4.44318 4.05424 4.44318C4.05424 4.44318 4.6697 4.0504 5.58201 3.71354L3.63081 1.38821C3.61615 1.37073 3.61844 1.34467 3.63591 1.33L4.83114 0.327076C4.84864 0.312408 4.87469 0.314688 4.88936 0.33217L7.35989 3.27644C7.57143 3.25251 7.78694 3.23914 8.00442 3.23914C8.317 3.23914 8.6292 3.2629 8.93397 3.30323L11.0945 0.21762ZM11.5778 6.86931C12.2296 6.40377 13.216 5.18868 13.216 5.18868C13.216 5.18868 15.7355 7.18523 15.7355 11.4187C15.7355 15.6521 11.3797 18.2 11.3797 18.2C11.3797 18.2 9.29858 16.0983 8.78768 13.4341C8.27682 10.7699 9.54341 7.81155 9.54341 7.81155C9.54341 7.81155 10.9259 7.33486 11.5778 6.86931ZM4.55758 6.86931C3.90574 6.40377 2.91938 5.18868 2.91938 5.18868C2.91938 5.18868 0.399902 7.18523 0.399902 11.4187C0.399902 15.6521 4.75569 18.2 4.75569 18.2C4.75569 18.2 6.8368 16.0983 7.34769 13.4341C7.85856 10.7699 6.59196 7.81155 6.59196 7.81155C6.59196 7.81155 5.20946 7.33486 4.55758 6.86931Z" fill="#9BBA48"/>
</svg>
