<svg width="19" height="19" viewBox="0 0 19 19" fill="none" xmlns="http://www.w3.org/2000/svg">
<path fill-rule="evenodd" clip-rule="evenodd" d="M8.27619 16.1205C8.61815 16.1729 8.96838 16.2 9.325 16.2C13.1219 16.2 16.2 13.122 16.2 9.32501C16.2 5.52803 13.1219 2.45 9.325 2.45C9.07026 2.45 8.81872 2.46385 8.57118 2.49085C10.4547 3.91781 11.7 6.38968 11.7 9.2C11.7 12.1545 10.3236 14.735 8.27619 16.1205ZM9.19999 18.2C14.1706 18.2 18.2 14.1706 18.2 9.2C18.2 4.22943 14.1706 0.199997 9.19999 0.199997C4.22942 0.199997 0.199997 4.22943 0.199997 9.2C0.199997 14.1706 4.22942 18.2 9.19999 18.2Z" fill="#595761"/>
</svg>
