<svg width="16" height="16" viewBox="0 0 16 16" fill="none" xmlns="http://www.w3.org/2000/svg">
<path fill-rule="evenodd" clip-rule="evenodd" d="M2.62604 1.33018C2.81968 0.565669 3.51228 0 4.33696 0C4.95556 0 5.49984 0.318272 5.81496 0.8H6.331C6.65159 0.470987 7.0995 0.266667 7.59515 0.266667C8.32184 0.266667 8.94596 0.705881 9.21653 1.33333H9.64856C9.91928 1.16433 10.2392 1.06667 10.5818 1.06667C11.3085 1.06667 11.9326 1.50588 12.2032 2.13333H13.378C13.3881 2.13333 13.3975 2.13604 13.4056 2.14075C13.4592 2.13584 13.5136 2.13333 13.5685 2.13333C14.5432 2.13333 15.3333 2.92348 15.3333 3.89819V9.19019L15.3333 9.2L15.3333 9.20981V9.28603C15.3333 9.31831 15.3324 9.35047 15.3307 9.38247C15.2245 13.0537 11.9234 16 7.86665 16C3.74293 16 0.399994 12.9555 0.399994 9.2C0.399994 7.38722 1.1789 5.74009 2.44854 4.52109C2.44538 6.28837 2.47523 8.11544 2.61283 8.08409C2.98128 8.00009 2.6934 2.52623 2.62604 1.33018Z" fill="#C44D61"/>
</svg>
