<svg width="14" height="19" viewBox="0 0 14 19" fill="none" xmlns="http://www.w3.org/2000/svg">
<path fill-rule="evenodd" clip-rule="evenodd" d="M10.3341 14.1005C10.5565 13.2873 10.1248 11.6156 10.1248 11.6156C10.1248 11.6156 9.81167 12.9775 9.32243 13.4808C8.90506 13.9102 8.39371 14.208 7.66035 14.2863C8.25994 13.995 8.67229 13.3878 8.67229 12.6859C8.67229 11.7006 7.85975 10.9018 6.85745 10.9018C5.85514 10.9018 5.04258 11.7006 5.04258 12.6859C5.04258 12.955 5.10322 13.2102 5.21175 13.439C4.58484 12.9395 4.48627 12.1388 4.48627 12.1388C4.48627 12.1388 3.78623 15.0452 5.71512 16.4123C7.64397 17.7795 11.4225 16.6044 11.4225 16.6044C11.4225 16.6044 6.01518 20.4091 2.00828 16.2681C-1.44334 12.701 1.1074 8.00476 1.1074 8.00476C1.1074 8.00476 0.997242 8.44042 0.997242 8.94614C0.997242 9.45187 1.27144 9.83665 1.27144 9.83665C1.27144 9.83665 2.08935 8.11262 2.72589 7.4115C3.32832 6.74796 4.08352 6.20979 4.7358 5.74495C5.23791 5.38713 5.67905 5.07277 5.94251 4.77812C7.39365 3.15551 6.50388 0.199966 6.50388 0.199966C6.50388 0.199966 8.1397 1.64208 8.59638 3.50458C8.77048 4.21453 8.65847 5.02232 8.55834 5.74467C8.39578 6.91734 8.2644 7.86491 9.4388 7.80342C11.3366 7.70404 9.68746 4.77812 9.68746 4.77812C9.68746 4.77812 13.9924 7.04078 13.6708 10.998C13.3492 14.9553 8.96528 15.8549 8.96528 15.8549C8.96528 15.8549 10.1116 14.9137 10.3341 14.1005Z" fill="#F66D6D"/>
</svg>
