<svg width="16" height="15" viewBox="0 0 16 15" fill="none" xmlns="http://www.w3.org/2000/svg">
<path fill-rule="evenodd" clip-rule="evenodd" d="M5.58476 14.0667C7.92861 14.0667 9.93524 12.764 10.7636 10.9174C10.7738 10.8949 7.43773 11.7844 7.54411 11.4699C7.59161 11.3295 9.63661 10.5825 11.1265 9.71108C11.9829 9.21024 12.3772 8.15001 12.3772 8.15001C12.3772 8.15001 10.9345 8.85049 10.2051 9.02817C8.73539 9.3863 7.44161 9.34774 7.44161 9.31042C7.44161 9.22974 9.5899 8.82155 12.5758 7.00201C13.9802 6.14617 14.3617 4.67198 14.3617 4.67198C14.3617 4.67198 12.8176 5.59173 11.8842 5.89538C9.67055 6.61548 7.65048 6.83248 7.65048 6.73504C7.65048 6.52642 9.42821 6.03757 11.313 5.12429C12.293 4.64944 13.1417 4.02907 14.1253 3.33916C15.7346 2.21038 16 0.199997 16 0.199997C16 0.199997 14.4127 1.22375 13.6382 1.56373C10.4419 2.9666 7.61967 3.70247 5.58476 3.86179C2.51301 4.10229 0 6.24551 0 9.02817C0 11.8109 2.50038 14.0667 5.58476 14.0667Z" fill="#A6BBE8"/>
</svg>
