<svg width="16" height="16" viewBox="0 0 16 16" fill="none" xmlns="http://www.w3.org/2000/svg">
<path fill-rule="evenodd" clip-rule="evenodd" d="M2.77573 13.9574C2.71872 13.9037 2.66233 13.8491 2.6066 13.7933C-0.335541 10.8512 -0.335541 6.08105 2.6066 3.13893C5.54872 0.19678 14.9235 -4.57764e-05 14.9235 -4.57764e-05C14.9235 -4.57764e-05 16.2032 10.8512 13.261 13.7933C10.648 16.4063 6.59315 16.6987 3.65755 14.6703L6.02295 11.7676L9.80426 10.9512L6.7176 10.6426L8.67921 8.6453L10.9121 8.15615L9.14647 7.63326L10.9121 4.44807L8.40065 7.26509L7.43081 5.89651L7.77222 8.15615L6.02295 10.1281L5.21209 7.63322V10.9512L2.77573 13.9574Z" fill="#73B861"/>
</svg>
