<svg width="20" height="16" viewBox="0 0 20 16" fill="none" xmlns="http://www.w3.org/2000/svg">
<path fill-rule="evenodd" clip-rule="evenodd" d="M14.6711 0.0207548L14.7289 5.09439L10.3036 7.21872L10.2491 2.42823L14.6711 0.0207548Z" fill="#8BCEC1"/>
<path fill-rule="evenodd" clip-rule="evenodd" d="M19.1073 8.0156L14.7266 10.5213L10.3433 8.01163L14.7243 5.71037L19.1073 8.0156Z" fill="#8BCEC1"/>
<path fill-rule="evenodd" clip-rule="evenodd" d="M9.56403 8.0156L5.18333 10.5213L0.800003 8.01163L5.18105 5.71037L9.56403 8.0156Z" fill="#8BCEC1"/>
<path fill-rule="evenodd" clip-rule="evenodd" d="M5.13408 -2.28882e-05L9.68095 2.25187L9.56469 7.15923L5.2716 5.03304L5.13408 -2.28882e-05Z" fill="#8BCEC1"/>
<path fill-rule="evenodd" clip-rule="evenodd" d="M14.795 15.9543L10.2481 13.7024L10.3644 8.79498L14.6575 10.9212L14.795 15.9543Z" fill="#8BCEC1"/>
<path fill-rule="evenodd" clip-rule="evenodd" d="M5.29109 16L5.23329 10.9263L9.65859 8.80201L9.71316 13.5925L5.29109 16Z" fill="#8BCEC1"/>
</svg>
