<svg width="16" height="16" viewBox="0 0 16 16" fill="none" xmlns="http://www.w3.org/2000/svg">
<path fill-rule="evenodd" clip-rule="evenodd" d="M14.0866 13.2884C14.0866 13.2884 12.0689 14.9067 8.05374 14.237C5.00747 13.729 3.38273 10.3709 3.38273 8.5659C3.38273 4.28637 6.55013 3.31248 8.69152 3.31248C10.8329 3.31248 12.2298 5.40021 12.2298 7.01663C12.2298 8.63306 11.0866 10.0469 9.3074 10.0469C7.52827 10.0469 7.00134 8.79786 7.00134 7.64952C7.00134 6.5012 7.93041 6.09663 8.77772 6.09663C9.62503 6.09663 9.91516 6.82002 9.91516 7.44174C9.91516 8.0635 9.43276 8.28615 9.0304 8.28615C8.62805 8.28615 8.58826 8.08316 8.43428 7.86982C8.28026 7.65652 8.63067 6.84905 8.05374 6.84905C7.4768 6.84905 7.36926 7.77731 7.36926 7.77731C7.36926 7.77731 7.57959 9.56916 9.3074 9.53825C11.0352 9.50731 11.8549 8.17154 11.6167 6.84905C11.3785 5.52654 10.095 4.12123 7.84246 4.4052C5.58991 4.68916 4.67021 6.96516 5.0756 9.39742C5.48099 11.8297 8.39483 13.239 10.6859 12.732C12.9769 12.2249 15.2588 10.5663 15.2588 6.3611C15.2588 2.15582 11.6167 -0.371921 7.2739 0.0446655C2.93108 0.46125 0.235264 4.25802 0.407821 8.81992C0.580377 13.3818 4.90908 15.8664 8.56945 15.9944C12.2298 16.1225 14.4738 14.0036 14.4738 14.0036C14.4738 14.0036 14.9784 13.5536 14.7806 13.2022C14.5827 12.8508 14.0866 13.2884 14.0866 13.2884Z" fill="#EB8B85"/>
</svg>
