<svg width="20" height="16" viewBox="0 0 20 16" fill="none" xmlns="http://www.w3.org/2000/svg">
<path fill-rule="evenodd" clip-rule="evenodd" d="M0.80186 8.01133C0.799385 8.00712 0.799384 8.00189 0.801856 7.99764L5.47889 0.00669526C5.48132 0.00255022 5.48579 0 5.49058 0H14.7607C14.7655 0 14.77 0.00257209 14.7724 0.00675346L19.3982 7.99771C19.4006 8.00189 19.4006 8.00708 19.3982 8.01126L14.7724 15.9932C14.77 15.9974 14.7655 16 14.7607 16H5.49058C5.48579 16 5.48132 15.9975 5.47889 15.9933L0.80186 8.01133ZM14.4091 8C14.4091 10.3791 12.4805 12.3077 10.1015 12.3077C7.7224 12.3077 5.79378 10.3791 5.79378 8C5.79378 5.62091 7.7224 3.69232 10.1015 3.69232C12.4805 3.69232 14.4091 5.62091 14.4091 8Z" fill="#6594A1"/>
</svg>
