<svg width="12" height="19" viewBox="0 0 12 19" fill="none" xmlns="http://www.w3.org/2000/svg">
<path fill-rule="evenodd" clip-rule="evenodd" d="M11.6784 12.3827C11.6784 15.5955 9.06414 18.2 5.83922 18.2C2.6143 18.2 0 15.5955 0 12.3827C0 9.25803 5.52336 0.676312 5.82628 0.208006C5.83321 0.197327 5.84527 0.197327 5.85216 0.208006C6.15508 0.676312 11.6784 9.25803 11.6784 12.3827ZM4.86584 16.335C1.90274 15.6867 2.40979 12.4043 2.40979 12.4043C2.40979 12.4043 3.21891 14.3858 5.18244 15.0276C7.14593 15.6694 9.5188 14.7281 9.5188 14.7281C9.5188 14.7281 7.82894 16.9833 4.86584 16.335Z" fill="#88A3D4"/>
</svg>
